<?xml version="1.0" encoding="UTF-8" standalone="no"?>
<!DOCTYPE svg PUBLIC "-//W3C//DTD SVG 1.1//EN" "http://www.w3.org/Graphics/SVG/1.1/DTD/svg11.dtd">
<svg version="1.1" xmlns="http://www.w3.org/2000/svg" xmlns:xlink="http://www.w3.org/1999/xlink" preserveAspectRatio="xMidYMid meet" viewBox="0 0 640 640" width="640" height="640"><defs><path d="M640 522.72L0 521.54L74.17 397.73L74.53 397.14C74.53 233.41 74.53 142.45 74.53 124.26C74.53 110.33 85.91 99.04 99.95 99.04C99.95 99.04 99.95 99.04 99.95 99.04C143.61 99.04 492.85 99.04 536.5 99.04C550.54 99.04 561.92 110.33 561.92 124.26C561.92 124.26 561.92 124.26 561.92 124.26C561.92 142.58 561.92 234.16 561.92 399.02L640 522.72Z" id="b5z1WDdn9"></path><path d="M130.62 120.17C126.65 120.17 123.43 123.12 123.42 126.76C123.42 146.73 123.42 306.5 123.42 326.47C123.43 330.11 126.65 333.06 130.62 333.07C168.96 333.07 475.68 333.07 514.02 333.07C517.99 333.06 521.21 330.11 521.22 326.47C521.22 306.5 521.22 146.73 521.22 126.76C521.21 123.12 517.99 120.17 514.02 120.17C437.34 120.17 207.3 120.17 130.62 120.17Z" id="d4lqwhj4O"></path><path d="M133.14 359.44C131.93 359.45 130.84 360.09 130.34 361.09C128.35 365.04 112.46 396.7 110.48 400.65C109.77 402.07 110.44 403.75 111.99 404.4C112.39 404.57 112.83 404.66 113.28 404.66C155.04 404.66 489.13 404.66 530.89 404.66C532.6 404.66 533.98 403.39 533.98 401.83C533.98 401.4 533.87 400.96 533.65 400.57C531.49 396.61 514.23 364.96 512.07 361.01C511.55 360.05 510.48 359.44 509.31 359.44C434.07 359.44 208.37 359.44 133.14 359.44Z" id="e4oRhFocro"></path><path d="M320.78 108.39C318.22 108.39 316.15 110.29 316.15 112.63C316.15 114.97 318.22 116.87 320.78 116.87C323.33 116.87 325.4 114.97 325.4 112.63C325.4 110.29 323.33 108.39 320.78 108.39Z" id="bi0B3xosn"></path><path d="M279.73 412.2C278.34 412.2 277.12 413.05 276.75 414.29C276.25 415.98 272.27 429.55 271.77 431.24C271.33 432.75 272.3 434.3 273.95 434.71C274.21 434.77 274.48 434.8 274.75 434.8C284.22 434.8 360.01 434.8 369.48 434.8C371.18 434.81 372.56 433.54 372.56 431.98C372.56 431.66 372.51 431.35 372.39 431.05C371.75 429.36 366.63 415.79 365.99 414.1C365.56 412.96 364.39 412.2 363.08 412.2C346.41 412.2 296.4 412.2 279.73 412.2Z" id="cbd3mJ8Gb"></path><path d="M532.52 345.78L108.72 345.78L109.04 345.31L109.04 342.02L532.52 342.02L532.52 345.78Z" id="b4we8bXCu"></path><path d="M300.77 155.45L300.77 157.13C360.77 157.13 394.1 157.13 400.76 157.13C411.02 157.13 419.33 164.74 419.33 174.14C419.33 183.53 411.02 191.15 400.76 191.15C385.63 191.15 264.59 191.15 249.46 191.15C239.21 191.15 230.9 183.53 230.9 174.14C230.9 164.74 239.21 157.13 249.46 157.13C249.84 157.13 251.72 157.13 255.11 157.13L255.11 155.45C251.72 155.45 249.84 155.45 249.46 155.45C238.2 155.45 229.07 163.82 229.07 174.14C229.07 184.46 238.2 192.82 249.46 192.82C264.59 192.82 385.63 192.82 400.76 192.82C412.02 192.82 421.15 184.46 421.15 174.14C421.15 163.82 412.02 155.45 400.76 155.45C400.76 155.45 400.76 155.45 400.76 155.45C400.76 155.45 367.43 155.45 300.77 155.45ZM300.77 213.2L300.77 214.87C360.77 214.87 394.1 214.87 400.76 214.87C411.02 214.87 419.33 222.49 419.33 231.88C419.33 241.28 411.02 248.9 400.76 248.9C385.63 248.9 264.59 248.9 249.46 248.9C239.21 248.9 230.9 241.28 230.9 231.88C230.9 222.49 239.21 214.87 249.46 214.87C249.84 214.87 251.72 214.87 255.11 214.87L255.11 213.2C251.72 213.2 249.84 213.2 249.46 213.2C238.2 213.2 229.07 221.56 229.07 231.88C229.07 242.2 238.2 250.57 249.46 250.57C264.59 250.57 385.63 250.57 400.76 250.57C412.02 250.57 421.15 242.2 421.15 231.88C421.15 221.56 412.02 213.2 400.76 213.2C400.76 213.2 400.76 213.2 400.76 213.2C400.76 213.2 367.43 213.2 300.77 213.2ZM300.77 270.94L300.77 272.62C360.77 272.62 394.1 272.62 400.76 272.62C411.02 272.62 419.33 280.23 419.33 289.63C419.33 299.02 411.02 306.64 400.76 306.64C385.63 306.64 264.59 306.64 249.46 306.64C239.21 306.64 230.9 299.02 230.9 289.63C230.9 280.23 239.21 272.62 249.46 272.62C249.84 272.62 251.72 272.62 255.11 272.62L255.11 270.94C251.72 270.94 249.84 270.94 249.46 270.94C238.2 270.94 229.07 279.31 229.07 289.63C229.07 299.95 238.2 308.31 249.46 308.31C264.59 308.31 385.63 308.31 400.76 308.31C412.02 308.31 421.15 299.95 421.15 289.63C421.15 279.31 412.02 270.94 400.76 270.94C400.76 270.94 400.76 270.94 400.76 270.94C400.76 270.94 367.43 270.94 300.77 270.94Z" id="d5PjTj91E7"></path><path d="M266.4 151.03C263.4 151.09 261.02 153.36 261.08 156.11C261.14 158.78 263.48 160.93 266.4 160.98C268.78 160.98 287.84 160.98 290.22 160.98C293.22 161.06 295.72 158.89 295.8 156.14C295.88 153.4 293.52 151.11 290.52 151.03C290.48 151.03 290.44 151.03 290.4 151.03C290.34 151.03 290.28 151.03 290.22 151.03C277.52 151.03 269.58 151.03 266.4 151.03ZM266.4 209.61C263.4 209.67 261.02 211.94 261.08 214.69C261.14 217.36 263.48 219.51 266.4 219.57C268.78 219.57 287.84 219.57 290.22 219.57C293.22 219.58 295.67 217.37 295.68 214.62C295.7 211.91 293.35 209.69 290.4 209.61C290.34 209.61 290.28 209.61 290.22 209.61C277.52 209.61 269.58 209.61 266.4 209.61ZM266.4 266.52C263.4 266.58 261.02 268.85 261.08 271.6C261.14 274.27 263.48 276.42 266.4 276.47C268.78 276.47 287.84 276.47 290.22 276.47C293.22 276.49 295.67 274.27 295.68 271.53C295.7 268.82 293.35 266.6 290.4 266.52C290.34 266.52 290.28 266.52 290.22 266.52C277.52 266.52 269.58 266.52 266.4 266.52Z" id="b3HJQlxhw"></path><path d="M256.95 169.16C253.95 169.22 251.57 171.49 251.63 174.24C251.69 176.91 254.04 179.06 256.95 179.12C270.57 179.12 379.48 179.12 393.09 179.12C396.09 179.19 398.59 177.02 398.67 174.28C398.75 171.53 396.39 169.24 393.39 169.16C393.35 169.16 393.31 169.16 393.27 169.16C393.21 169.16 393.15 169.16 393.09 169.16C320.49 169.16 275.11 169.16 256.95 169.16ZM256.95 226.91C253.95 226.96 251.57 229.23 251.63 231.98C251.69 234.65 254.04 236.81 256.95 236.86C270.57 236.86 379.48 236.86 393.09 236.86C396.09 236.94 398.59 234.77 398.67 232.02C398.75 229.27 396.39 226.98 393.39 226.91C393.35 226.91 393.31 226.91 393.27 226.91C393.21 226.91 393.15 226.91 393.09 226.91C320.49 226.91 275.11 226.91 256.95 226.91Z" id="a17pVYpvFL"></path><path d="M256.95 284.26C253.95 284.31 251.57 286.59 251.63 289.33C251.69 292.01 254.04 294.16 256.95 294.21C270.57 294.21 379.48 294.21 393.09 294.21C396.09 294.29 398.59 292.12 398.67 289.37C398.75 286.63 396.39 284.34 393.39 284.26C393.35 284.26 393.31 284.26 393.27 284.26C393.21 284.26 393.15 284.26 393.09 284.26C320.49 284.26 275.11 284.26 256.95 284.26Z" id="e7nEmoYPlU"></path><path d="M206.39 163.78C200.38 163.78 195.52 168.24 195.52 173.75C195.52 179.25 200.38 183.71 206.39 183.71C212.39 183.71 217.26 179.25 217.26 173.75C217.26 168.24 212.39 163.78 206.39 163.78Z" id="b34bMWPgec"></path><path d="M202.21 174.11L204.05 172.8L205.55 174.56L210.62 169.66L212.32 171.13L205.38 177.84L202.21 174.11Z" id="bjxrvpyfz"></path><path d="M206.39 221.53C200.38 221.53 195.52 225.99 195.52 231.49C195.52 237 200.38 241.46 206.39 241.46C212.39 241.46 217.26 237 217.26 231.49C217.26 225.99 212.39 221.53 206.39 221.53Z" id="b7hyvJZ16"></path><path d="M202.21 231.85L204.05 230.54L205.55 232.31L210.62 227.41L212.32 228.88L205.38 235.59L202.21 231.85Z" id="e4tbWsjorC"></path><path d="M206.39 279.27C200.38 279.27 195.52 283.73 195.52 289.24C195.52 294.74 200.38 299.2 206.39 299.2C212.39 299.2 217.26 294.74 217.26 289.24C217.26 283.73 212.39 279.27 206.39 279.27Z" id="d2IqIkq0qZ"></path><path d="M444.73 163.78C438.72 163.78 433.85 168.24 433.85 173.75C433.85 179.25 438.72 183.71 444.73 183.71C450.73 183.71 455.6 179.25 455.6 173.75C455.6 168.24 450.73 163.78 444.73 163.78Z" id="fl2rKTSpD"></path><path d="M444.73 221.53C438.72 221.53 433.85 225.99 433.85 231.49C433.85 237 438.72 241.46 444.73 241.46C450.73 241.46 455.6 237 455.6 231.49C455.6 225.99 450.73 221.53 444.73 221.53Z" id="b5l3txWLjR"></path><path d="M444.73 279.27C438.72 279.27 433.85 283.73 433.85 289.24C433.85 294.74 438.72 299.2 444.73 299.2C450.73 299.2 455.6 294.74 455.6 289.24C455.6 283.73 450.73 279.27 444.73 279.27Z" id="b8YManr3JQ"></path><path d="M202.21 289.6L204.05 288.29L205.55 290.05L210.62 285.15L212.32 286.62L205.38 293.33L202.21 289.6Z" id="fzrMJMLaI"></path><path d="M441.07 171.38L441.98 170.55L448.06 176.12L447.15 176.95L441.07 171.38Z" id="a1Fjxzy03x"></path><path d="M441.39 176.12L447.47 170.55L448.38 171.38L442.3 176.95L441.39 176.12Z" id="bWwDRDfn7"></path><path d="M441.07 229.12L441.98 228.29L448.06 233.86L447.15 234.69L441.07 229.12Z" id="dpomglKr2"></path><path d="M441.39 233.86L447.47 228.29L448.38 229.12L442.3 234.69L441.39 233.86Z" id="bBdKTXUcH"></path><path d="M441.07 286.87L441.98 286.04L448.06 291.61L447.15 292.44L441.07 286.87Z" id="bF08ibz"></path><path d="M441.39 291.61L447.47 286.04L448.38 286.87L442.3 292.44L441.39 291.61Z" id="b9zRbIF2vw"></path><path d="M210.7 275.27C210.47 274.96 210.21 274.66 209.93 274.38C209.24 273.68 205.76 270.21 199.5 263.95L189.47 268.6C194.07 276.94 196.63 281.57 197.14 282.49C199.1 286.04 203.83 287.46 207.7 285.66C207.97 285.54 208.23 285.4 208.48 285.25C212.1 283.05 213.09 278.59 210.7 275.27ZM80.43 308.24C80.39 307.86 80.31 307.49 80.19 307.12C79.92 306.21 78.53 301.67 76.02 293.5L64.78 293.5C64.78 302.84 64.78 308.03 64.78 309.07C64.78 313.04 68.3 316.26 72.64 316.26C72.94 316.26 73.24 316.25 73.54 316.21C77.85 315.76 80.93 312.18 80.43 308.24Z" id="d5N5FoUoa"></path><path d="M159.69 415.95L150.94 407.56L138.46 407.56L138.46 419L159.69 415.95Z" id="a15U5y8847"></path><path d="M70.19 419.76C83.43 422.97 90.78 424.75 92.25 425.1C88.19 417.38 85.69 410.54 87.26 406.03C86.57 405.95 83.1 405.57 76.85 404.88L70.19 419.76Z" id="aNm83YE16"></path><path d="M87.68 409.08L123.06 304.56L138.04 408.7L151.78 408.7L150.53 261.45L97.25 261.45L74.77 406.79L87.68 409.08Z" id="e1msHTrwQ"></path><path d="M163.52 417.3C165.66 416.66 166.83 414.54 166.12 412.58C166.06 412.4 165.98 412.24 165.9 412.07C165.16 410.72 163.61 409.91 161.97 410.01C161.65 410.03 160.06 410.13 157.2 410.31C156.08 409.73 155.46 409.41 155.34 409.34C154.82 409.07 154.15 409.24 153.86 409.72C153.7 409.99 153.67 410.31 153.8 410.59C153.92 410.85 154.49 412.12 155.52 414.42L138.04 413.28C137.52 417.07 137.24 419.18 137.18 419.6C136.9 421.66 138.49 423.53 140.73 423.79C141.33 423.86 141.95 423.81 142.52 423.63C146.72 422.37 161.42 417.93 163.52 417.3ZM94.38 427.9C96.7 428.04 98.72 426.42 98.87 424.28C98.88 424.1 98.88 423.91 98.86 423.72C98.72 422.16 97.58 420.84 95.96 420.35C95.65 420.26 94.08 419.79 91.26 418.95C90.43 418 89.97 417.47 89.88 417.36C89.49 416.92 88.78 416.85 88.3 417.2C88.03 417.4 87.87 417.7 87.88 418.02C87.88 418.3 87.89 419.73 87.91 422.3L71.61 415.02C69.52 418.47 68.35 420.4 68.12 420.78C66.98 422.66 67.72 425.02 69.77 426.06C70.32 426.34 70.92 426.5 71.55 426.54C76.12 426.81 92.09 427.76 94.38 427.9Z" id="b1Fg4SY4uL"></path><path d="M120.14 150.83C111.64 150.83 104.74 157.15 104.74 164.94C104.74 172.74 111.64 179.06 120.14 179.06C128.65 179.06 135.54 172.74 135.54 164.94C135.54 157.15 128.65 150.83 120.14 150.83Z" id="k2MxDUNuxR"></path><path d="M131.38 190.88L131.38 172.19C118.64 172.19 111.57 172.19 110.15 172.19C111.91 177.96 111.68 184.25 110.15 190.88C110.15 190.88 117.23 190.88 131.38 190.88Z" id="b8LVmFQbsK"></path><path d="M153.61 264.18C157.11 230.32 159.05 211.52 159.44 207.75C159.44 200.21 154.19 193.5 146.39 191.07C145.79 190.88 142.79 189.95 137.38 188.26C134.38 185.06 132.71 183.28 132.38 182.92C126.07 181.67 119.21 181.98 111.99 183.3C111.63 183.79 109.82 186.2 106.57 190.55C103.08 191.58 101.14 192.14 100.75 192.26C92.61 194.64 87.18 201.66 87.42 209.48C91.75 230.01 95.12 249.08 95.34 263.41C103.11 263.51 122.53 263.77 153.61 264.18Z" id="a2ZMLZidIY"></path><path d="M62.7 293.5L77.27 295.02L93.92 233.61L95.59 193.94C95.29 194.07 95.13 194.14 95.09 194.15C87.28 197.62 81.7 204.25 80.04 212.06C77.73 222.92 71.95 250.06 62.7 293.5ZM190.07 270.61L201.31 265.65C181.53 231.83 170.54 213.04 168.34 209.28C163.56 201.09 155.78 194.71 146.37 191.26C146.78 193.66 148.86 205.61 152.61 227.12L190.07 270.61Z" id="i2VvliCuqL"></path><path d="M123.05 174.43C123.05 174.43 125.58 166.58 128.2 166.88C128.2 166.88 138.05 159.2 136.5 155.98C136.5 155.98 127.63 140.92 112.69 146.38C112.69 146.38 99.46 165.53 101.01 168.74C101.01 168.74 107.62 177.65 107.62 177.65C107.62 177.65 122.73 176.83 123.05 174.43Z" id="c4mBoJwDC3"></path><path d="M480.37 350.65C480.04 350.65 479.74 350.86 479.65 351.16C479.53 351.57 478.56 354.87 478.44 355.29C478.33 355.65 478.56 356.03 478.96 356.13C479.03 356.15 479.09 356.15 479.16 356.15C481.47 356.15 499.92 356.15 502.23 356.15C502.65 356.15 502.98 355.85 502.98 355.47C502.98 355.39 502.97 355.31 502.94 355.24C502.78 354.83 501.54 351.52 501.38 351.11C501.28 350.83 500.99 350.65 500.67 350.65C496.61 350.65 484.43 350.65 480.37 350.65ZM446.69 350.65C446.35 350.65 446.05 350.86 445.97 351.16C445.84 351.57 444.87 354.87 444.75 355.29C444.64 355.65 444.88 356.03 445.28 356.13C445.34 356.15 445.41 356.15 445.48 356.15C447.78 356.15 466.24 356.15 468.55 356.15C468.96 356.15 469.3 355.85 469.3 355.47C469.3 355.39 469.28 355.31 469.26 355.24C469.1 354.83 467.85 351.52 467.7 351.11C467.59 350.83 467.31 350.65 466.99 350.65C462.93 350.65 450.75 350.65 446.69 350.65Z" id="cNLRw5FWi"></path></defs><g><g><g><use xlink:href="#b5z1WDdn9" opacity="1" fill="#000000" fill-opacity="1"></use><g><use xlink:href="#b5z1WDdn9" opacity="1" fill-opacity="0" stroke="#000000" stroke-width="1" stroke-opacity="0"></use></g></g><g><use xlink:href="#d4lqwhj4O" opacity="1" fill="#9c9595" fill-opacity="1"></use><g><use xlink:href="#d4lqwhj4O" opacity="1" fill-opacity="0" stroke="#000000" stroke-width="1" stroke-opacity="0"></use></g></g><g><use xlink:href="#e4oRhFocro" opacity="1" fill="#a8a8a8" fill-opacity="1"></use><g><use xlink:href="#e4oRhFocro" opacity="1" fill-opacity="0" stroke="#000000" stroke-width="1" stroke-opacity="0"></use></g></g><g><use xlink:href="#bi0B3xosn" opacity="1" fill="#ffffff" fill-opacity="1"></use><g><use xlink:href="#bi0B3xosn" opacity="1" fill-opacity="0" stroke="#000000" stroke-width="1" stroke-opacity="0"></use></g></g><g><use xlink:href="#cbd3mJ8Gb" opacity="1" fill="#e4e4e4" fill-opacity="1"></use><g><use xlink:href="#cbd3mJ8Gb" opacity="1" fill-opacity="0" stroke="#000000" stroke-width="1" stroke-opacity="0"></use></g></g><g><use xlink:href="#b4we8bXCu" opacity="1" fill="#2f2e41" fill-opacity="1"></use><g><use xlink:href="#b4we8bXCu" opacity="1" fill-opacity="0" stroke="#000000" stroke-width="1" stroke-opacity="0"></use></g></g><g><use xlink:href="#d5PjTj91E7" opacity="1" fill="#e6e6e6" fill-opacity="1"></use><g><use xlink:href="#d5PjTj91E7" opacity="1" fill-opacity="0" stroke="#000000" stroke-width="1" stroke-opacity="0"></use></g></g><g><use xlink:href="#b3HJQlxhw" opacity="1" fill="#3f3d56" fill-opacity="1"></use><g><use xlink:href="#b3HJQlxhw" opacity="1" fill-opacity="0" stroke="#000000" stroke-width="1" stroke-opacity="0"></use></g></g><g><use xlink:href="#a17pVYpvFL" opacity="1" fill="#ffe563" fill-opacity="1"></use><g><use xlink:href="#a17pVYpvFL" opacity="1" fill-opacity="0" stroke="#000000" stroke-width="1" stroke-opacity="0"></use></g></g><g><use xlink:href="#e7nEmoYPlU" opacity="1" fill="#ffe563" fill-opacity="1"></use><g><use xlink:href="#e7nEmoYPlU" opacity="1" fill-opacity="0" stroke="#000000" stroke-width="1" stroke-opacity="0"></use></g></g><g><use xlink:href="#b34bMWPgec" opacity="1" fill="#ffe563" fill-opacity="1"></use><g><use xlink:href="#b34bMWPgec" opacity="1" fill-opacity="0" stroke="#000000" stroke-width="1" stroke-opacity="0"></use></g></g><g><use xlink:href="#bjxrvpyfz" opacity="1" fill="#ffffff" fill-opacity="1"></use><g><use xlink:href="#bjxrvpyfz" opacity="1" fill-opacity="0" stroke="#000000" stroke-width="1" stroke-opacity="0"></use></g></g><g><use xlink:href="#b7hyvJZ16" opacity="1" fill="#ffe563" fill-opacity="1"></use><g><use xlink:href="#b7hyvJZ16" opacity="1" fill-opacity="0" stroke="#000000" stroke-width="1" stroke-opacity="0"></use></g></g><g><use xlink:href="#e4tbWsjorC" opacity="1" fill="#ffffff" fill-opacity="1"></use><g><use xlink:href="#e4tbWsjorC" opacity="1" fill-opacity="0" stroke="#000000" stroke-width="1" stroke-opacity="0"></use></g></g><g><use xlink:href="#d2IqIkq0qZ" opacity="1" fill="#ffe563" fill-opacity="1"></use><g><use xlink:href="#d2IqIkq0qZ" opacity="1" fill-opacity="0" stroke="#000000" stroke-width="1" stroke-opacity="0"></use></g></g><g><use xlink:href="#fl2rKTSpD" opacity="1" fill="#e6e6e6" fill-opacity="1"></use><g><use xlink:href="#fl2rKTSpD" opacity="1" fill-opacity="0" stroke="#000000" stroke-width="1" stroke-opacity="0"></use></g></g><g><use xlink:href="#b5l3txWLjR" opacity="1" fill="#e6e6e6" fill-opacity="1"></use><g><use xlink:href="#b5l3txWLjR" opacity="1" fill-opacity="0" stroke="#000000" stroke-width="1" stroke-opacity="0"></use></g></g><g><use xlink:href="#b8YManr3JQ" opacity="1" fill="#e6e6e6" fill-opacity="1"></use><g><use xlink:href="#b8YManr3JQ" opacity="1" fill-opacity="0" stroke="#000000" stroke-width="1" stroke-opacity="0"></use></g></g><g><use xlink:href="#fzrMJMLaI" opacity="1" fill="#ffffff" fill-opacity="1"></use><g><use xlink:href="#fzrMJMLaI" opacity="1" fill-opacity="0" stroke="#000000" stroke-width="1" stroke-opacity="0"></use></g></g><g><use xlink:href="#a1Fjxzy03x" opacity="1" fill="#ffffff" fill-opacity="1"></use><g><use xlink:href="#a1Fjxzy03x" opacity="1" fill-opacity="0" stroke="#000000" stroke-width="1" stroke-opacity="0"></use></g></g><g><use xlink:href="#bWwDRDfn7" opacity="1" fill="#ffffff" fill-opacity="1"></use><g><use xlink:href="#bWwDRDfn7" opacity="1" fill-opacity="0" stroke="#000000" stroke-width="1" stroke-opacity="0"></use></g></g><g><use xlink:href="#dpomglKr2" opacity="1" fill="#ffffff" fill-opacity="1"></use><g><use xlink:href="#dpomglKr2" opacity="1" fill-opacity="0" stroke="#000000" stroke-width="1" stroke-opacity="0"></use></g></g><g><use xlink:href="#bBdKTXUcH" opacity="1" fill="#ffffff" fill-opacity="1"></use><g><use xlink:href="#bBdKTXUcH" opacity="1" fill-opacity="0" stroke="#000000" stroke-width="1" stroke-opacity="0"></use></g></g><g><use xlink:href="#bF08ibz" opacity="1" fill="#ffffff" fill-opacity="1"></use><g><use xlink:href="#bF08ibz" opacity="1" fill-opacity="0" stroke="#000000" stroke-width="1" stroke-opacity="0"></use></g></g><g><use xlink:href="#b9zRbIF2vw" opacity="1" fill="#ffffff" fill-opacity="1"></use><g><use xlink:href="#b9zRbIF2vw" opacity="1" fill-opacity="0" stroke="#000000" stroke-width="1" stroke-opacity="0"></use></g></g><g><use xlink:href="#d5N5FoUoa" opacity="1" fill="#ffb8b8" fill-opacity="1"></use><g><use xlink:href="#d5N5FoUoa" opacity="1" fill-opacity="0" stroke="#000000" stroke-width="1" stroke-opacity="0"></use></g></g><g><use xlink:href="#a15U5y8847" opacity="1" fill="#ffb8b8" fill-opacity="1"></use><g><use xlink:href="#a15U5y8847" opacity="1" fill-opacity="0" stroke="#000000" stroke-width="1" stroke-opacity="0"></use></g></g><g><use xlink:href="#aNm83YE16" opacity="1" fill="#ffb8b8" fill-opacity="1"></use><g><use xlink:href="#aNm83YE16" opacity="1" fill-opacity="0" stroke="#000000" stroke-width="1" stroke-opacity="0"></use></g></g><g><use xlink:href="#e1msHTrwQ" opacity="1" fill="#000000" fill-opacity="1"></use><g><use xlink:href="#e1msHTrwQ" opacity="1" fill-opacity="0" stroke="#000000" stroke-width="1" stroke-opacity="0"></use></g></g><g><use xlink:href="#b1Fg4SY4uL" opacity="1" fill="#575a88" fill-opacity="1"></use><g><use xlink:href="#b1Fg4SY4uL" opacity="1" fill-opacity="0" stroke="#000000" stroke-width="1" stroke-opacity="0"></use></g></g><g><use xlink:href="#k2MxDUNuxR" opacity="1" fill="#ffb8b8" fill-opacity="1"></use><g><use xlink:href="#k2MxDUNuxR" opacity="1" fill-opacity="0" stroke="#000000" stroke-width="1" stroke-opacity="0"></use></g></g><g><use xlink:href="#b8LVmFQbsK" opacity="1" fill="#ffb8b8" fill-opacity="1"></use><g><use xlink:href="#b8LVmFQbsK" opacity="1" fill-opacity="0" stroke="#000000" stroke-width="1" stroke-opacity="0"></use></g></g><g><use xlink:href="#a2ZMLZidIY" opacity="1" fill="#ffe563" fill-opacity="1"></use><g><use xlink:href="#a2ZMLZidIY" opacity="1" fill-opacity="0" stroke="#000000" stroke-width="1" stroke-opacity="0"></use></g></g><g><use xlink:href="#i2VvliCuqL" opacity="1" fill="#ffe563" fill-opacity="1"></use><g><use xlink:href="#i2VvliCuqL" opacity="1" fill-opacity="0" stroke="#000000" stroke-width="1" stroke-opacity="0"></use></g></g><g><use xlink:href="#c4mBoJwDC3" opacity="1" fill="#2f2e41" fill-opacity="1"></use><g><use xlink:href="#c4mBoJwDC3" opacity="1" fill-opacity="0" stroke="#000000" stroke-width="1" stroke-opacity="0"></use></g></g><g><use xlink:href="#cNLRw5FWi" opacity="1" fill="#ffe563" fill-opacity="1"></use><g><use xlink:href="#cNLRw5FWi" opacity="1" fill-opacity="0" stroke="#000000" stroke-width="1" stroke-opacity="0"></use></g></g></g></g></svg>