<?xml version="1.0" encoding="UTF-8" standalone="no"?>
<!DOCTYPE svg PUBLIC "-//W3C//DTD SVG 1.1//EN" "http://www.w3.org/Graphics/SVG/1.1/DTD/svg11.dtd">
<svg version="1.1" xmlns="http://www.w3.org/2000/svg" xmlns:xlink="http://www.w3.org/1999/xlink" preserveAspectRatio="xMidYMid meet" viewBox="0 0 640 640" width="30" height="30"><defs><path d="M343.1 178.91L343.39 178.94L343.67 179L343.94 179.07L344.21 179.15L344.46 179.24L344.71 179.35L344.95 179.48L345.18 179.61L345.41 179.76L345.63 179.92L345.84 180.1L346.05 180.28L346.25 180.48L346.44 180.68L346.63 180.9L346.82 181.13L347 181.37L347.17 181.62L347.34 181.88L347.51 182.15L347.67 182.43L347.83 182.71L347.98 183.01L348.13 183.31L348.28 183.62L348.42 183.94L348.56 184.27L348.7 184.6L348.84 184.94L348.97 185.29L349.1 185.64L349.24 186L349.37 186.36L349.49 186.73L349.62 187.1L349.75 187.48L349.87 187.86L350 188.25L356.49 212.58L358.52 213.21L363.02 214.81L367.44 216.58L371.77 218.51L376.01 220.6L376.36 220.79L398.22 208.14L398.59 207.95L398.95 207.77L399.3 207.59L399.66 207.42L400.01 207.25L400.36 207.08L400.7 206.92L401.04 206.77L401.38 206.62L401.72 206.47L402.05 206.34L402.39 206.21L402.71 206.08L403.04 205.97L403.36 205.86L403.67 205.76L403.99 205.67L404.3 205.58L404.61 205.51L404.91 205.45L405.21 205.4L405.51 205.35L405.8 205.32L406.09 205.3L406.37 205.29L406.65 205.29L406.93 205.31L407.2 205.34L407.47 205.38L407.74 205.43L408 205.5L408.26 205.59L408.51 205.68L408.76 205.8L409 205.92L409.24 206.07L409.48 206.23L409.71 206.41L409.93 206.6L410.16 206.81L441.98 238.63L442.19 238.85L442.38 239.08L442.56 239.31L442.73 239.55L442.87 239.8L443.01 240.05L443.13 240.3L443.23 240.56L443.32 240.83L443.4 241.09L443.46 241.37L443.51 241.65L443.55 241.93L443.57 242.21L443.58 242.5L443.58 242.8L443.57 243.09L443.55 243.39L443.51 243.7L443.46 244L443.41 244.31L443.34 244.63L443.26 244.94L443.17 245.26L443.08 245.58L442.97 245.9L442.85 246.22L442.73 246.55L442.6 246.88L442.45 247.21L442.31 247.54L442.15 247.87L441.98 248.2L441.81 248.54L441.63 248.88L441.45 249.21L441.26 249.55L441.06 249.89L440.86 250.22L440.65 250.56L428.01 272.39L428.27 272.87L430.37 277.11L432.3 281.44L434.06 285.85L435.66 290.35L436.29 292.39L460.63 298.88L461.01 298.97L461.39 299.06L461.77 299.16L462.14 299.26L462.51 299.37L462.88 299.48L463.23 299.6L463.59 299.72L463.93 299.84L464.27 299.97L464.61 300.1L464.93 300.24L465.25 300.38L465.56 300.53L465.87 300.68L466.16 300.84L466.45 301L466.72 301.17L466.99 301.34L467.25 301.52L467.5 301.71L467.74 301.9L467.97 302.09L468.19 302.29L468.4 302.5L468.59 302.71L468.78 302.93L468.95 303.16L469.11 303.39L469.26 303.63L469.4 303.87L469.52 304.12L469.63 304.38L469.73 304.64L469.81 304.91L469.88 305.19L469.93 305.48L469.97 305.77L469.99 306.07L470 306.38L470 351.38L469.99 351.68L469.97 351.98L469.93 352.27L469.88 352.55L469.81 352.82L469.73 353.08L469.63 353.34L469.52 353.58L469.4 353.82L469.26 354.06L469.11 354.28L468.95 354.5L468.78 354.72L468.59 354.92L468.4 355.12L468.19 355.32L467.97 355.51L467.74 355.69L467.5 355.87L467.25 356.05L466.99 356.22L466.72 356.38L466.45 356.54L466.16 356.7L465.87 356.86L465.56 357.01L465.25 357.15L464.93 357.3L464.61 357.44L464.27 357.58L463.93 357.71L463.59 357.85L463.23 357.98L462.88 358.11L462.51 358.24L462.14 358.37L461.77 358.5L461.39 358.62L461.01 358.75L460.63 358.88L436.29 365.36L435.66 367.4L434.06 371.9L432.3 376.31L430.37 380.64L428.27 384.88L428.04 385.31L440.65 407.1L440.86 407.44L441.06 407.77L441.26 408.11L441.45 408.45L441.63 408.79L441.81 409.12L441.98 409.46L442.15 409.79L442.31 410.12L442.45 410.45L442.6 410.78L442.73 411.11L442.85 411.44L442.97 411.76L443.08 412.08L443.17 412.4L443.26 412.72L443.34 413.04L443.41 413.35L443.46 413.66L443.51 413.96L443.55 414.27L443.57 414.57L443.58 414.86L443.58 415.16L443.57 415.45L443.55 415.73L443.51 416.01L443.46 416.29L443.4 416.57L443.32 416.83L443.23 417.1L443.13 417.36L443.01 417.61L442.87 417.86L442.73 418.11L442.56 418.35L442.38 418.58L442.19 418.81L441.98 419.03L410.16 450.85L409.93 451.06L409.71 451.26L409.48 451.43L409.24 451.59L409 451.74L408.76 451.86L408.51 451.98L408.26 452.07L408 452.16L407.74 452.23L407.47 452.28L407.2 452.32L406.93 452.35L406.65 452.37L406.37 452.37L406.09 452.36L405.8 452.34L405.51 452.31L405.21 452.27L404.91 452.21L404.61 452.15L404.3 452.08L403.99 451.99L403.67 451.9L403.36 451.8L403.04 451.69L402.71 451.58L402.39 451.45L402.05 451.32L401.72 451.19L401.38 451.04L401.04 450.89L400.7 450.74L400.36 450.58L400.01 450.41L399.66 450.24L399.3 450.07L398.95 449.89L398.59 449.71L398.22 449.53L376.44 436.91L376.01 437.15L371.77 439.24L367.44 441.17L363.02 442.94L358.52 444.54L356.49 445.17L350 469.5L349.87 469.89L349.75 470.27L349.62 470.65L349.49 471.02L349.37 471.39L349.24 471.75L349.1 472.11L348.97 472.46L348.84 472.81L348.7 473.15L348.56 473.48L348.42 473.81L348.28 474.13L348.13 474.44L347.98 474.74L347.83 475.04L347.67 475.32L347.51 475.6L347.34 475.87L347.17 476.13L347 476.38L346.82 476.62L346.63 476.85L346.44 477.07L346.25 477.27L346.05 477.47L345.84 477.65L345.63 477.83L345.41 477.99L345.18 478.14L344.95 478.27L344.71 478.4L344.46 478.51L344.21 478.6L343.94 478.68L343.67 478.75L343.39 478.81L343.1 478.84L342.81 478.87L342.5 478.88L297.5 478.88L297.19 478.87L296.89 478.84L296.6 478.81L296.32 478.75L296.04 478.68L295.77 478.6L295.5 478.51L295.25 478.4L294.99 478.27L294.75 478.14L294.51 477.99L294.28 477.83L294.06 477.65L293.84 477.47L293.62 477.27L293.42 477.07L293.22 476.85L293.02 476.62L292.83 476.38L292.65 476.13L292.47 475.87L292.3 475.6L292.13 475.32L291.97 475.04L291.81 474.74L291.66 474.44L291.51 474.13L291.37 473.81L291.23 473.48L291.1 473.15L290.97 472.81L290.84 472.46L290.72 472.11L290.61 471.75L290.5 471.39L290.39 471.02L290.29 470.65L290.19 470.27L290.09 469.89L290 469.5L283.51 445.17L281.48 444.54L276.98 442.94L272.56 441.17L268.23 439.24L263.99 437.15L263.48 436.87L241.78 449.44L241.44 449.64L241.1 449.85L240.76 450.04L240.43 450.23L240.09 450.42L239.75 450.6L239.42 450.77L239.09 450.93L238.75 451.09L238.42 451.24L238.09 451.38L237.76 451.51L237.44 451.64L237.11 451.76L236.79 451.86L236.47 451.96L236.15 452.05L235.84 452.13L235.53 452.19L235.22 452.25L234.91 452.3L234.61 452.33L234.31 452.36L234.01 452.37L233.72 452.37L233.43 452.36L233.14 452.33L232.86 452.3L232.58 452.25L232.31 452.18L232.04 452.11L231.78 452.02L231.52 451.91L231.26 451.79L231.01 451.66L230.77 451.51L230.53 451.35L230.29 451.17L230.07 450.97L229.84 450.76L198.02 418.94L197.81 418.72L197.62 418.49L197.44 418.26L197.28 418.03L197.14 417.79L197.01 417.54L196.9 417.29L196.8 417.04L196.72 416.79L196.65 416.52L196.59 416.26L196.55 415.99L196.52 415.72L196.51 415.44L196.51 415.16L196.51 414.87L196.54 414.58L196.57 414.29L196.61 414L196.66 413.7L196.73 413.39L196.8 413.08L196.88 412.77L196.97 412.46L197.07 412.14L197.18 411.82L197.3 411.5L197.42 411.17L197.55 410.84L197.69 410.51L197.83 410.17L197.98 409.83L198.14 409.49L198.3 409.14L198.46 408.79L198.63 408.44L198.81 408.09L198.98 407.73L199.17 407.37L199.35 407.01L211.94 385.27L211.73 384.88L209.63 380.64L207.7 376.31L205.94 371.9L204.34 367.4L203.71 365.36L179.37 358.88L178.99 358.75L178.61 358.62L178.23 358.5L177.86 358.37L177.49 358.24L177.12 358.11L176.77 357.98L176.41 357.85L176.07 357.71L175.73 357.58L175.39 357.44L175.07 357.3L174.75 357.15L174.44 357.01L174.13 356.86L173.84 356.7L173.55 356.54L173.28 356.38L173.01 356.22L172.75 356.05L172.5 355.87L172.26 355.69L172.03 355.51L171.81 355.32L171.6 355.12L171.41 354.92L171.22 354.72L171.05 354.5L170.89 354.28L170.74 354.06L170.6 353.82L170.48 353.58L170.37 353.34L170.27 353.08L170.19 352.82L170.12 352.55L170.07 352.27L170.03 351.98L170.01 351.68L170 351.38L170 306.38L170.01 306.07L170.03 305.77L170.07 305.48L170.12 305.19L170.19 304.91L170.27 304.64L170.37 304.38L170.48 304.12L170.6 303.87L170.74 303.63L170.89 303.39L171.05 303.16L171.22 302.93L171.41 302.71L171.6 302.5L171.81 302.29L172.03 302.09L172.26 301.9L172.5 301.71L172.75 301.52L173.01 301.34L173.28 301.17L173.55 301L173.84 300.84L174.13 300.68L174.44 300.53L174.75 300.38L175.07 300.24L175.39 300.1L175.73 299.97L176.07 299.84L176.41 299.72L176.77 299.6L177.12 299.48L177.49 299.37L177.86 299.26L178.23 299.16L178.61 299.06L178.99 298.97L179.37 298.88L203.71 292.39L204.34 290.35L205.94 285.85L207.7 281.44L209.63 277.11L211.73 272.87L211.96 272.44L199.35 250.65L199.17 250.29L198.98 249.93L198.81 249.57L198.63 249.22L198.46 248.87L198.3 248.52L198.14 248.17L197.98 247.83L197.83 247.49L197.69 247.15L197.55 246.82L197.42 246.49L197.3 246.16L197.18 245.84L197.07 245.52L196.97 245.2L196.88 244.89L196.8 244.58L196.73 244.27L196.66 243.97L196.61 243.67L196.57 243.37L196.54 243.08L196.51 242.79L196.51 242.5L196.51 242.22L196.52 241.94L196.55 241.67L196.59 241.4L196.65 241.14L196.72 240.88L196.8 240.62L196.9 240.37L197.01 240.12L197.14 239.87L197.28 239.63L197.44 239.4L197.62 239.17L197.81 238.94L198.02 238.72L229.84 206.9L230.07 206.69L230.29 206.49L230.53 206.31L230.77 206.15L231.01 206L231.26 205.87L231.52 205.75L231.78 205.64L232.04 205.55L232.31 205.48L232.58 205.41L232.86 205.36L233.14 205.33L233.43 205.3L233.72 205.29L234.01 205.29L234.31 205.3L234.61 205.33L234.91 205.36L235.22 205.41L235.53 205.47L235.84 205.54L236.15 205.61L236.47 205.7L236.79 205.8L237.11 205.91L237.44 206.02L237.76 206.15L238.09 206.28L238.42 206.42L238.75 206.57L239.09 206.73L239.42 206.89L239.75 207.06L240.09 207.24L240.43 207.43L240.76 207.62L241.1 207.81L241.44 208.02L241.78 208.23L263.56 220.84L263.99 220.6L268.23 218.51L272.56 216.58L276.98 214.81L281.48 213.21L283.51 212.58L290 188.25L290.09 187.86L290.19 187.48L290.29 187.1L290.39 186.73L290.5 186.36L290.61 186L290.72 185.64L290.84 185.29L290.97 184.94L291.1 184.6L291.23 184.27L291.37 183.94L291.51 183.62L291.66 183.31L291.81 183.01L291.97 182.71L292.13 182.43L292.3 182.15L292.47 181.88L292.65 181.62L292.83 181.37L293.02 181.13L293.22 180.9L293.42 180.68L293.62 180.48L293.84 180.28L294.06 180.1L294.28 179.92L294.51 179.76L294.75 179.61L294.99 179.48L295.25 179.35L295.5 179.24L295.77 179.15L296.04 179.07L296.32 179L296.6 178.94L296.89 178.91L297.19 178.88L297.5 178.88L342.5 178.88L342.81 178.88L343.1 178.91ZM314.62 263.47L311.97 263.74L309.36 264.11L306.77 264.58L304.23 265.16L301.72 265.83L299.26 266.6L296.83 267.46L294.46 268.41L292.12 269.45L289.84 270.58L287.61 271.79L285.43 273.08L283.31 274.46L281.24 275.91L279.24 277.44L277.29 279.05L275.41 280.72L273.6 282.47L271.85 284.29L270.17 286.17L268.57 288.11L267.04 290.12L265.58 292.18L264.21 294.31L262.91 296.49L261.7 298.72L260.57 301L259.53 303.33L258.58 305.71L257.72 308.13L256.95 310.6L256.28 313.1L255.71 315.65L255.23 318.23L254.86 320.85L254.59 323.49L254.43 326.17L254.37 328.88L254.43 331.58L254.59 334.26L254.86 336.9L255.23 339.52L255.71 342.1L256.28 344.65L256.95 347.15L257.72 349.62L258.58 352.04L259.53 354.42L260.57 356.75L261.7 359.03L262.91 361.27L264.21 363.44L265.58 365.57L267.04 367.63L268.57 369.64L270.17 371.58L271.85 373.46L273.6 375.28L275.41 377.03L277.29 378.7L279.24 380.31L281.24 381.84L283.31 383.29L285.43 384.67L287.61 385.96L289.84 387.18L292.12 388.3L294.46 389.34L296.83 390.29L299.26 391.15L301.72 391.92L304.23 392.59L306.77 393.17L309.36 393.64L311.97 394.01L314.62 394.28L317.29 394.45L320 394.5L322.71 394.45L325.38 394.28L328.03 394.01L330.64 393.64L333.23 393.17L335.77 392.59L338.28 391.92L340.74 391.15L343.17 390.29L345.54 389.34L347.88 388.3L350.16 387.18L352.39 385.96L354.57 384.67L356.69 383.29L358.76 381.84L360.76 380.31L362.71 378.7L364.59 377.03L366.4 375.28L368.15 373.46L369.83 371.58L371.43 369.64L372.96 367.63L374.42 365.57L375.79 363.44L377.09 361.27L378.3 359.03L379.43 356.75L380.47 354.42L381.42 352.04L382.28 349.62L383.05 347.15L383.72 344.65L384.29 342.1L384.77 339.52L385.14 336.9L385.41 334.26L385.57 331.58L385.62 328.88L385.57 326.17L385.41 323.49L385.14 320.85L384.77 318.23L384.29 315.65L383.72 313.1L383.05 310.6L382.28 308.13L381.42 305.71L380.47 303.33L379.43 301L378.3 298.72L377.09 296.49L375.79 294.31L374.42 292.18L372.96 290.12L371.43 288.11L369.83 286.17L368.15 284.29L366.4 282.47L364.59 280.72L362.71 279.05L360.76 277.44L358.76 275.91L356.69 274.46L354.57 273.08L352.39 271.79L350.16 270.58L347.88 269.45L345.54 268.41L343.17 267.46L340.74 266.6L338.28 265.83L335.77 265.16L333.23 264.58L330.64 264.11L328.03 263.74L325.38 263.47L322.71 263.3L320 263.25L317.29 263.3L314.62 263.47Z" id="aFFGWQ8bW"></path></defs><g><g><g><use xlink:href="#aFFGWQ8bW" opacity="1" fill="#bfb400" fill-opacity="1"></use></g></g></g></svg>