<?xml version="1.0" encoding="UTF-8" standalone="no"?>
<!DOCTYPE svg PUBLIC "-//W3C//DTD SVG 1.1//EN" "http://www.w3.org/Graphics/SVG/1.1/DTD/svg11.dtd">
<svg version="1.1" xmlns="http://www.w3.org/2000/svg" xmlns:xlink="http://www.w3.org/1999/xlink" preserveAspectRatio="xMidYMid meet" viewBox="0 0 40 40" width="40" height="40"><defs><path d="M187.31 180.88L187.34 180.88L187.37 180.89L187.39 180.89L187.42 180.9L187.45 180.91L187.47 180.92L187.49 180.94L187.52 180.95L187.54 180.96L187.56 180.98L187.58 181L187.6 181.02L187.62 181.04L187.64 181.06L187.66 181.08L187.68 181.1L187.7 181.12L187.72 181.15L187.73 181.18L187.75 181.2L187.77 181.23L187.78 181.26L187.8 181.29L187.81 181.32L187.83 181.35L187.84 181.38L187.86 181.41L187.87 181.45L187.88 181.48L187.9 181.52L187.91 181.55L187.92 181.59L187.94 181.62L187.95 181.66L187.96 181.7L187.97 181.74L187.99 181.77L188 181.81L188.65 184.25L188.85 184.31L189.3 184.47L189.74 184.65L190.18 184.84L190.6 185.05L190.64 185.07L192.82 183.8L192.86 183.78L192.89 183.76L192.93 183.75L192.97 183.73L193 183.71L193.04 183.7L193.07 183.68L193.1 183.66L193.14 183.65L193.17 183.64L193.21 183.62L193.24 183.61L193.27 183.6L193.3 183.58L193.34 183.57L193.37 183.56L193.4 183.55L193.43 183.55L193.46 183.54L193.49 183.53L193.52 183.53L193.55 183.52L193.58 183.52L193.61 183.52L193.64 183.52L193.67 183.52L193.69 183.52L193.72 183.52L193.75 183.53L193.77 183.53L193.8 183.54L193.83 183.55L193.85 183.56L193.88 183.57L193.9 183.58L193.92 183.59L193.95 183.61L193.97 183.63L193.99 183.65L194.02 183.67L197.2 186.85L197.22 186.87L197.24 186.9L197.26 186.92L197.27 186.94L197.29 186.97L197.3 186.99L197.31 187.02L197.32 187.04L197.33 187.07L197.34 187.1L197.35 187.12L197.35 187.15L197.35 187.18L197.36 187.21L197.36 187.24L197.36 187.27L197.36 187.3L197.35 187.33L197.35 187.36L197.35 187.39L197.34 187.42L197.33 187.45L197.33 187.48L197.32 187.51L197.31 187.55L197.3 187.58L197.29 187.61L197.27 187.64L197.26 187.68L197.25 187.71L197.23 187.74L197.21 187.77L197.2 187.81L197.18 187.84L197.16 187.88L197.14 187.91L197.13 187.94L197.11 187.98L197.09 188.01L197.07 188.04L195.8 190.23L195.83 190.27L196.04 190.7L196.23 191.13L196.41 191.57L196.57 192.02L196.63 192.23L199.06 192.88L199.1 192.88L199.14 192.89L199.18 192.9L199.21 192.91L199.25 192.92L199.29 192.94L199.32 192.95L199.36 192.96L199.39 192.97L199.43 192.98L199.46 193L199.49 193.01L199.53 193.03L199.56 193.04L199.59 193.06L199.62 193.07L199.64 193.09L199.67 193.1L199.7 193.12L199.73 193.14L199.75 193.16L199.77 193.18L199.8 193.2L199.82 193.22L199.84 193.24L199.86 193.26L199.88 193.28L199.9 193.3L199.91 193.33L199.93 193.35L199.94 193.37L199.95 193.4L199.96 193.43L199.97 193.45L199.98 193.48L199.99 193.51L199.99 193.54L200 193.56L200 193.59L200 193.63L200 198.13L200 198.16L200 198.19L199.99 198.21L199.99 198.24L199.98 198.27L199.97 198.3L199.96 198.32L199.95 198.35L199.94 198.37L199.93 198.39L199.91 198.42L199.9 198.44L199.88 198.46L199.86 198.48L199.84 198.5L199.82 198.52L199.8 198.54L199.77 198.56L199.75 198.57L199.73 198.59L199.7 198.61L199.67 198.63L199.64 198.64L199.62 198.66L199.59 198.67L199.56 198.69L199.53 198.7L199.49 198.72L199.46 198.73L199.43 198.75L199.39 198.76L199.36 198.77L199.32 198.79L199.29 198.8L199.25 198.81L199.21 198.82L199.18 198.84L199.14 198.85L199.1 198.86L199.06 198.88L196.63 199.52L196.57 199.73L196.41 200.18L196.23 200.62L196.04 201.05L195.83 201.48L195.8 201.52L197.07 203.7L197.09 203.73L197.11 203.77L197.13 203.8L197.14 203.83L197.16 203.87L197.18 203.9L197.2 203.93L197.21 203.97L197.23 204L197.25 204.03L197.26 204.07L197.27 204.1L197.29 204.13L197.3 204.16L197.31 204.2L197.32 204.23L197.33 204.26L197.33 204.29L197.34 204.32L197.35 204.35L197.35 204.38L197.35 204.41L197.36 204.44L197.36 204.47L197.36 204.5L197.36 204.53L197.35 204.56L197.35 204.59L197.35 204.62L197.34 204.64L197.33 204.67L197.32 204.7L197.31 204.72L197.3 204.75L197.29 204.77L197.27 204.8L197.26 204.82L197.24 204.85L197.22 204.87L197.2 204.89L194.02 208.07L193.99 208.09L193.97 208.11L193.95 208.13L193.92 208.15L193.9 208.16L193.88 208.17L193.85 208.19L193.83 208.2L193.8 208.2L193.77 208.21L193.75 208.22L193.72 208.22L193.69 208.22L193.67 208.22L193.64 208.22L193.61 208.22L193.58 208.22L193.55 208.22L193.52 208.21L193.49 208.21L193.46 208.2L193.43 208.2L193.4 208.19L193.37 208.18L193.34 208.17L193.3 208.16L193.27 208.15L193.24 208.13L193.21 208.12L193.17 208.11L193.14 208.09L193.1 208.08L193.07 208.06L193.04 208.05L193 208.03L192.97 208.01L192.93 207.99L192.89 207.98L192.86 207.96L192.82 207.94L190.64 206.68L190.6 206.7L190.18 206.91L189.74 207.1L189.3 207.28L188.85 207.44L188.65 207.5L188 209.94L187.99 209.98L187.97 210.01L187.96 210.05L187.95 210.09L187.94 210.13L187.92 210.16L187.91 210.2L187.9 210.23L187.88 210.27L187.87 210.3L187.86 210.34L187.84 210.37L187.83 210.4L187.81 210.43L187.8 210.46L187.78 210.49L187.77 210.52L187.75 210.55L187.73 210.57L187.72 210.6L187.7 210.63L187.68 210.65L187.66 210.67L187.64 210.69L187.62 210.71L187.6 210.73L187.58 210.75L187.56 210.77L187.54 210.79L187.52 210.8L187.49 210.82L187.47 210.83L187.45 210.84L187.42 210.85L187.39 210.86L187.37 210.86L187.34 210.87L187.31 210.87L187.28 210.87L187.25 210.88L182.75 210.88L182.72 210.87L182.69 210.87L182.66 210.87L182.63 210.86L182.6 210.86L182.58 210.85L182.55 210.84L182.52 210.83L182.5 210.82L182.48 210.8L182.45 210.79L182.43 210.77L182.41 210.75L182.38 210.73L182.36 210.71L182.34 210.69L182.32 210.67L182.3 210.65L182.28 210.63L182.26 210.6L182.25 210.57L182.23 210.55L182.21 210.52L182.2 210.49L182.18 210.46L182.17 210.43L182.15 210.4L182.14 210.37L182.12 210.34L182.11 210.3L182.1 210.27L182.08 210.23L182.07 210.2L182.06 210.16L182.05 210.13L182.04 210.09L182.03 210.05L182.02 210.01L182.01 209.98L182 209.94L181.35 207.5L181.15 207.44L180.7 207.28L180.26 207.1L179.82 206.91L179.4 206.7L179.35 206.67L177.18 207.93L177.14 207.95L177.11 207.97L177.08 207.99L177.04 208.01L177.01 208.03L176.98 208.05L176.94 208.06L176.91 208.08L176.88 208.1L176.84 208.11L176.81 208.13L176.78 208.14L176.74 208.15L176.71 208.16L176.68 208.17L176.65 208.18L176.62 208.19L176.58 208.2L176.55 208.21L176.52 208.21L176.49 208.22L176.46 208.22L176.43 208.22L176.4 208.22L176.37 208.22L176.34 208.22L176.31 208.22L176.29 208.22L176.26 208.21L176.23 208.21L176.2 208.2L176.18 208.19L176.15 208.18L176.13 208.17L176.1 208.15L176.08 208.14L176.05 208.12L176.03 208.1L176.01 208.08L175.98 208.06L172.8 204.88L172.78 204.86L172.76 204.84L172.74 204.81L172.73 204.79L172.71 204.77L172.7 204.74L172.69 204.72L172.68 204.69L172.67 204.67L172.66 204.64L172.66 204.61L172.66 204.59L172.65 204.56L172.65 204.53L172.65 204.5L172.65 204.47L172.65 204.45L172.66 204.42L172.66 204.39L172.67 204.36L172.67 204.33L172.68 204.3L172.69 204.27L172.7 204.23L172.71 204.2L172.72 204.17L172.73 204.14L172.74 204.1L172.76 204.07L172.77 204.04L172.78 204L172.8 203.97L172.81 203.94L172.83 203.9L172.85 203.87L172.86 203.83L172.88 203.8L172.9 203.76L172.92 203.72L172.93 203.69L174.19 201.51L174.17 201.48L173.96 201.05L173.77 200.62L173.59 200.18L173.43 199.73L173.37 199.52L170.94 198.88L170.9 198.86L170.86 198.85L170.82 198.84L170.79 198.82L170.75 198.81L170.71 198.8L170.68 198.79L170.64 198.77L170.61 198.76L170.57 198.75L170.54 198.73L170.51 198.72L170.47 198.7L170.44 198.69L170.41 198.67L170.38 198.66L170.36 198.64L170.33 198.63L170.3 198.61L170.27 198.59L170.25 198.57L170.23 198.56L170.2 198.54L170.18 198.52L170.16 198.5L170.14 198.48L170.12 198.46L170.1 198.44L170.09 198.42L170.07 198.39L170.06 198.37L170.05 198.35L170.04 198.32L170.03 198.3L170.02 198.27L170.01 198.24L170.01 198.21L170 198.19L170 198.16L170 198.13L170 193.63L170 193.59L170 193.56L170.01 193.54L170.01 193.51L170.02 193.48L170.03 193.45L170.04 193.43L170.05 193.4L170.06 193.37L170.07 193.35L170.09 193.33L170.1 193.3L170.12 193.28L170.14 193.26L170.16 193.24L170.18 193.22L170.2 193.2L170.23 193.18L170.25 193.16L170.27 193.14L170.3 193.12L170.33 193.1L170.36 193.09L170.38 193.07L170.41 193.06L170.44 193.04L170.47 193.03L170.51 193.01L170.54 193L170.57 192.98L170.61 192.97L170.64 192.96L170.68 192.95L170.71 192.94L170.75 192.92L170.79 192.91L170.82 192.9L170.86 192.89L170.9 192.88L170.94 192.88L173.37 192.23L173.43 192.02L173.59 191.57L173.77 191.13L173.96 190.7L174.17 190.27L174.2 190.23L172.93 188.05L172.92 188.02L172.9 187.98L172.88 187.94L172.86 187.91L172.85 187.87L172.83 187.84L172.81 187.8L172.8 187.77L172.78 187.74L172.77 187.7L172.76 187.67L172.74 187.64L172.73 187.6L172.72 187.57L172.71 187.54L172.7 187.51L172.69 187.48L172.68 187.45L172.67 187.41L172.67 187.38L172.66 187.35L172.66 187.32L172.65 187.3L172.65 187.27L172.65 187.24L172.65 187.21L172.65 187.18L172.66 187.15L172.66 187.13L172.66 187.1L172.67 187.08L172.68 187.05L172.69 187.02L172.7 187L172.71 186.97L172.73 186.95L172.74 186.93L172.76 186.9L172.78 186.88L172.8 186.86L175.98 183.68L176.01 183.66L176.03 183.64L176.05 183.62L176.08 183.6L176.1 183.59L176.13 183.57L176.15 183.56L176.18 183.55L176.2 183.54L176.23 183.54L176.26 183.53L176.29 183.52L176.31 183.52L176.34 183.52L176.37 183.52L176.4 183.52L176.43 183.52L176.46 183.52L176.49 183.52L176.52 183.53L176.55 183.53L176.58 183.54L176.62 183.55L176.65 183.56L176.68 183.57L176.71 183.58L176.74 183.59L176.78 183.6L176.81 183.62L176.84 183.63L176.88 183.64L176.91 183.66L176.94 183.68L176.98 183.69L177.01 183.71L177.04 183.73L177.08 183.75L177.11 183.77L177.14 183.79L177.18 183.81L179.36 185.07L179.4 185.05L179.82 184.84L180.26 184.65L180.7 184.47L181.15 184.31L181.35 184.25L182 181.81L182.01 181.77L182.02 181.74L182.03 181.7L182.04 181.66L182.05 181.62L182.06 181.59L182.07 181.55L182.08 181.52L182.1 181.48L182.11 181.45L182.12 181.41L182.14 181.38L182.15 181.35L182.17 181.32L182.18 181.29L182.2 181.26L182.21 181.23L182.23 181.2L182.25 181.18L182.26 181.15L182.28 181.12L182.3 181.1L182.32 181.08L182.34 181.06L182.36 181.04L182.38 181.02L182.41 181L182.43 180.98L182.45 180.96L182.48 180.95L182.5 180.94L182.52 180.92L182.55 180.91L182.58 180.9L182.6 180.89L182.63 180.89L182.66 180.88L182.69 180.88L182.72 180.88L182.75 180.88L187.25 180.88L187.28 180.88L187.31 180.88ZM184.46 189.33L184.2 189.36L183.94 189.4L183.68 189.45L183.42 189.5L183.17 189.57L182.93 189.65L182.68 189.73L182.45 189.83L182.21 189.93L181.98 190.05L181.76 190.17L181.54 190.3L181.33 190.43L181.12 190.58L180.92 190.73L180.73 190.89L180.54 191.06L180.36 191.23L180.18 191.42L180.02 191.6L179.86 191.8L179.7 192L179.56 192.21L179.42 192.42L179.29 192.64L179.17 192.86L179.06 193.09L178.95 193.32L178.86 193.56L178.77 193.8L178.7 194.05L178.63 194.3L178.57 194.55L178.52 194.81L178.49 195.07L178.46 195.34L178.44 195.6L178.44 195.88L178.44 196.15L178.46 196.41L178.49 196.68L178.52 196.94L178.57 197.2L178.63 197.45L178.7 197.7L178.77 197.95L178.86 198.19L178.95 198.43L179.06 198.66L179.17 198.89L179.29 199.11L179.42 199.33L179.56 199.54L179.7 199.75L179.86 199.95L180.02 200.15L180.18 200.33L180.36 200.52L180.54 200.69L180.73 200.86L180.92 201.02L181.12 201.17L181.33 201.32L181.54 201.45L181.76 201.58L181.98 201.71L182.21 201.82L182.45 201.92L182.68 202.02L182.93 202.1L183.17 202.18L183.42 202.25L183.68 202.3L183.94 202.35L184.2 202.39L184.46 202.42L184.73 202.43L185 202.44L185.27 202.43L185.54 202.42L185.8 202.39L186.06 202.35L186.32 202.3L186.58 202.25L186.83 202.18L187.07 202.1L187.32 202.02L187.55 201.92L187.79 201.82L188.02 201.71L188.24 201.58L188.46 201.45L188.67 201.32L188.88 201.17L189.08 201.02L189.27 200.86L189.46 200.69L189.64 200.52L189.82 200.33L189.98 200.15L190.14 199.95L190.3 199.75L190.44 199.54L190.58 199.33L190.71 199.11L190.83 198.89L190.94 198.66L191.05 198.43L191.14 198.19L191.23 197.95L191.3 197.7L191.37 197.45L191.43 197.2L191.48 196.94L191.51 196.68L191.54 196.41L191.56 196.15L191.56 195.88L191.56 195.6L191.54 195.34L191.51 195.07L191.48 194.81L191.43 194.55L191.37 194.3L191.3 194.05L191.23 193.8L191.14 193.56L191.05 193.32L190.94 193.09L190.83 192.86L190.71 192.64L190.58 192.42L190.44 192.21L190.3 192L190.14 191.8L189.98 191.6L189.82 191.42L189.64 191.23L189.46 191.06L189.27 190.89L189.08 190.73L188.88 190.58L188.67 190.43L188.46 190.3L188.24 190.17L188.02 190.05L187.79 189.93L187.55 189.83L187.32 189.73L187.07 189.65L186.83 189.57L186.58 189.5L186.32 189.45L186.06 189.4L185.8 189.36L185.54 189.33L185.27 189.32L185 189.31L184.73 189.32L184.46 189.33Z" id="d62OCzalWE"></path><path d="M23.08 0L23.12 0.01L23.16 0.02L23.19 0.03L23.23 0.04L23.26 0.05L23.29 0.06L23.33 0.08L23.36 0.1L23.39 0.12L23.42 0.14L23.45 0.16L23.47 0.19L23.5 0.21L23.53 0.24L23.55 0.27L23.58 0.3L23.6 0.33L23.62 0.37L23.65 0.4L23.67 0.44L23.69 0.47L23.71 0.51L23.73 0.55L23.75 0.59L23.77 0.63L23.79 0.68L23.81 0.72L23.83 0.76L23.85 0.81L23.86 0.86L23.88 0.9L23.9 0.95L23.92 1L23.93 1.05L23.95 1.1L23.97 1.15L23.98 1.2L24 1.25L24.86 4.49L25.14 4.58L25.74 4.79L26.33 5.03L26.9 5.28L27.47 5.56L27.51 5.59L30.43 3.9L30.48 3.88L30.53 3.85L30.57 3.83L30.62 3.81L30.67 3.78L30.71 3.76L30.76 3.74L30.81 3.72L30.85 3.7L30.9 3.68L30.94 3.66L30.98 3.64L31.03 3.63L31.07 3.61L31.11 3.6L31.16 3.58L31.2 3.57L31.24 3.56L31.28 3.55L31.32 3.54L31.36 3.54L31.4 3.53L31.44 3.53L31.48 3.52L31.52 3.52L31.55 3.52L31.59 3.52L31.63 3.53L31.66 3.53L31.7 3.54L31.73 3.55L31.77 3.56L31.8 3.57L31.83 3.59L31.87 3.61L31.9 3.63L31.93 3.65L31.96 3.67L31.99 3.7L32.02 3.72L36.26 7.97L36.29 8L36.32 8.03L36.34 8.06L36.36 8.09L36.38 8.12L36.4 8.16L36.42 8.19L36.43 8.22L36.44 8.26L36.45 8.3L36.46 8.33L36.47 8.37L36.47 8.41L36.48 8.45L36.48 8.48L36.48 8.52L36.48 8.56L36.47 8.6L36.47 8.64L36.46 8.68L36.45 8.73L36.45 8.77L36.43 8.81L36.42 8.85L36.41 8.89L36.4 8.94L36.38 8.98L36.36 9.02L36.35 9.07L36.33 9.11L36.31 9.16L36.29 9.2L36.26 9.24L36.24 9.29L36.22 9.33L36.19 9.38L36.17 9.42L36.14 9.47L36.11 9.51L36.09 9.56L34.4 12.47L34.44 12.53L34.72 13.1L34.97 13.67L35.21 14.26L35.42 14.86L35.51 15.14L38.75 16L38.8 16.01L38.85 16.02L38.9 16.04L38.95 16.05L39 16.07L39.05 16.08L39.1 16.1L39.14 16.11L39.19 16.13L39.24 16.15L39.28 16.16L39.32 16.18L39.37 16.2L39.41 16.22L39.45 16.24L39.49 16.26L39.53 16.28L39.56 16.31L39.6 16.33L39.63 16.35L39.67 16.38L39.7 16.4L39.73 16.43L39.76 16.46L39.79 16.48L39.81 16.51L39.84 16.54L39.86 16.57L39.88 16.6L39.9 16.63L39.92 16.67L39.94 16.7L39.95 16.73L39.96 16.77L39.97 16.81L39.98 16.84L39.99 16.88L40 16.92L40 16.96L40 17L40 23L40 23.04L40 23.08L39.99 23.12L39.98 23.16L39.97 23.19L39.96 23.23L39.95 23.26L39.94 23.29L39.92 23.33L39.9 23.36L39.88 23.39L39.86 23.42L39.84 23.45L39.81 23.47L39.79 23.5L39.76 23.53L39.73 23.55L39.7 23.58L39.67 23.6L39.63 23.62L39.6 23.65L39.56 23.67L39.53 23.69L39.49 23.71L39.45 23.73L39.41 23.75L39.37 23.77L39.32 23.79L39.28 23.81L39.24 23.83L39.19 23.85L39.14 23.86L39.1 23.88L39.05 23.9L39 23.92L38.95 23.93L38.9 23.95L38.85 23.97L38.8 23.98L38.75 24L35.51 24.86L35.42 25.14L35.21 25.74L34.97 26.33L34.72 26.9L34.44 27.47L34.4 27.52L36.09 30.43L36.11 30.47L36.14 30.52L36.17 30.56L36.19 30.61L36.22 30.65L36.24 30.7L36.26 30.74L36.29 30.79L36.31 30.83L36.33 30.88L36.35 30.92L36.36 30.96L36.38 31.01L36.4 31.05L36.41 31.09L36.42 31.14L36.43 31.18L36.45 31.22L36.45 31.26L36.46 31.3L36.47 31.35L36.47 31.39L36.48 31.43L36.48 31.47L36.48 31.5L36.48 31.54L36.47 31.58L36.47 31.62L36.46 31.66L36.45 31.69L36.44 31.73L36.43 31.76L36.42 31.8L36.4 31.83L36.38 31.87L36.36 31.9L36.34 31.93L36.32 31.96L36.29 31.99L36.26 32.02L32.02 36.26L31.99 36.29L31.96 36.32L31.93 36.34L31.9 36.36L31.87 36.38L31.83 36.4L31.8 36.41L31.77 36.43L31.73 36.44L31.7 36.45L31.66 36.45L31.63 36.46L31.59 36.46L31.55 36.47L31.52 36.47L31.48 36.46L31.44 36.46L31.4 36.46L31.36 36.45L31.32 36.44L31.28 36.44L31.24 36.43L31.2 36.42L31.16 36.4L31.11 36.39L31.07 36.38L31.03 36.36L30.98 36.34L30.94 36.33L30.9 36.31L30.85 36.29L30.81 36.27L30.76 36.25L30.71 36.23L30.67 36.2L30.62 36.18L30.57 36.16L30.53 36.14L30.48 36.11L30.43 36.09L27.52 34.4L27.47 34.44L26.9 34.72L26.33 34.97L25.74 35.21L25.14 35.42L24.86 35.51L24 38.75L23.98 38.8L23.97 38.85L23.95 38.9L23.93 38.95L23.92 39L23.9 39.05L23.88 39.1L23.86 39.14L23.85 39.19L23.83 39.24L23.81 39.28L23.79 39.32L23.77 39.37L23.75 39.41L23.73 39.45L23.71 39.49L23.69 39.53L23.67 39.56L23.65 39.6L23.62 39.63L23.6 39.67L23.58 39.7L23.55 39.73L23.53 39.76L23.5 39.79L23.47 39.81L23.45 39.84L23.42 39.86L23.39 39.88L23.36 39.9L23.33 39.92L23.29 39.94L23.26 39.95L23.23 39.96L23.19 39.97L23.16 39.98L23.12 39.99L23.08 40L23.04 40L23 40L17 40L16.96 40L16.92 40L16.88 39.99L16.84 39.98L16.81 39.97L16.77 39.96L16.73 39.95L16.7 39.94L16.67 39.92L16.63 39.9L16.6 39.88L16.57 39.86L16.54 39.84L16.51 39.81L16.48 39.79L16.46 39.76L16.43 39.73L16.4 39.7L16.38 39.67L16.35 39.63L16.33 39.6L16.31 39.56L16.28 39.53L16.26 39.49L16.24 39.45L16.22 39.41L16.2 39.37L16.18 39.32L16.16 39.28L16.15 39.24L16.13 39.19L16.11 39.14L16.1 39.1L16.08 39.05L16.07 39L16.05 38.95L16.04 38.9L16.02 38.85L16.01 38.8L16 38.75L15.14 35.51L14.86 35.42L14.26 35.21L13.67 34.97L13.1 34.72L12.53 34.44L12.46 34.4L9.57 36.07L9.53 36.1L9.48 36.13L9.44 36.16L9.39 36.18L9.35 36.21L9.3 36.23L9.26 36.25L9.21 36.27L9.17 36.3L9.12 36.32L9.08 36.33L9.04 36.35L8.99 36.37L8.95 36.38L8.91 36.4L8.86 36.41L8.82 36.42L8.78 36.43L8.74 36.44L8.7 36.45L8.65 36.46L8.61 36.46L8.57 36.46L8.53 36.47L8.5 36.47L8.46 36.46L8.42 36.46L8.38 36.46L8.34 36.45L8.31 36.44L8.27 36.43L8.24 36.42L8.2 36.41L8.17 36.39L8.13 36.37L8.1 36.35L8.07 36.33L8.04 36.31L8.01 36.28L7.98 36.25L3.74 32.01L3.71 31.98L3.68 31.95L3.66 31.92L3.64 31.89L3.62 31.85L3.6 31.82L3.59 31.79L3.57 31.76L3.56 31.72L3.55 31.69L3.55 31.65L3.54 31.62L3.54 31.58L3.53 31.54L3.53 31.5L3.54 31.47L3.54 31.43L3.54 31.39L3.55 31.35L3.56 31.31L3.56 31.27L3.57 31.23L3.58 31.19L3.6 31.14L3.61 31.1L3.62 31.06L3.64 31.02L3.66 30.97L3.67 30.93L3.69 30.88L3.71 30.84L3.73 30.79L3.75 30.75L3.77 30.7L3.8 30.66L3.82 30.61L3.84 30.56L3.86 30.51L3.89 30.47L3.91 30.42L5.59 27.52L5.56 27.47L5.28 26.9L5.03 26.33L4.79 25.74L4.58 25.14L4.49 24.86L1.25 24L1.2 23.98L1.15 23.97L1.1 23.95L1.05 23.93L1 23.92L0.95 23.9L0.9 23.88L0.86 23.86L0.81 23.85L0.76 23.83L0.72 23.81L0.68 23.79L0.63 23.77L0.59 23.75L0.55 23.73L0.51 23.71L0.47 23.69L0.44 23.67L0.4 23.65L0.37 23.62L0.33 23.6L0.3 23.58L0.27 23.55L0.24 23.53L0.21 23.5L0.19 23.47L0.16 23.45L0.14 23.42L0.12 23.39L0.1 23.36L0.08 23.33L0.06 23.29L0.05 23.26L0.04 23.23L0.03 23.19L0.02 23.16L0.01 23.12L0 23.08L0 23.04L0 23L0 17L0 16.96L0 16.92L0.01 16.88L0.02 16.84L0.03 16.81L0.04 16.77L0.05 16.73L0.06 16.7L0.08 16.67L0.1 16.63L0.12 16.6L0.14 16.57L0.16 16.54L0.19 16.51L0.21 16.48L0.24 16.46L0.27 16.43L0.3 16.4L0.33 16.38L0.37 16.35L0.4 16.33L0.44 16.31L0.47 16.28L0.51 16.26L0.55 16.24L0.59 16.22L0.63 16.2L0.68 16.18L0.72 16.16L0.76 16.15L0.81 16.13L0.86 16.11L0.9 16.1L0.95 16.08L1 16.07L1.05 16.05L1.1 16.04L1.15 16.02L1.2 16.01L1.25 16L4.49 15.14L4.58 14.86L4.79 14.26L5.03 13.67L5.28 13.1L5.56 12.53L5.6 12.48L3.91 9.57L3.89 9.52L3.86 9.47L3.84 9.43L3.82 9.38L3.8 9.33L3.77 9.29L3.75 9.24L3.73 9.19L3.71 9.15L3.69 9.1L3.67 9.06L3.66 9.02L3.64 8.97L3.62 8.93L3.61 8.89L3.6 8.84L3.58 8.8L3.57 8.76L3.56 8.72L3.56 8.68L3.55 8.64L3.54 8.6L3.54 8.56L3.54 8.52L3.53 8.48L3.53 8.45L3.54 8.41L3.54 8.37L3.55 8.34L3.55 8.3L3.56 8.27L3.57 8.23L3.59 8.2L3.6 8.17L3.62 8.13L3.64 8.1L3.66 8.07L3.68 8.04L3.71 8.01L3.74 7.98L7.98 3.74L8.01 3.71L8.04 3.68L8.07 3.66L8.1 3.64L8.13 3.62L8.17 3.6L8.2 3.58L8.24 3.57L8.27 3.56L8.31 3.55L8.34 3.54L8.38 3.53L8.42 3.53L8.46 3.52L8.5 3.52L8.53 3.52L8.57 3.52L8.61 3.53L8.65 3.53L8.7 3.54L8.74 3.55L8.78 3.55L8.82 3.57L8.86 3.58L8.91 3.59L8.95 3.6L8.99 3.62L9.04 3.64L9.08 3.65L9.12 3.67L9.17 3.69L9.21 3.71L9.26 3.74L9.3 3.76L9.35 3.78L9.39 3.81L9.44 3.83L9.48 3.86L9.53 3.89L9.57 3.91L12.48 5.6L12.53 5.56L13.1 5.28L13.67 5.03L14.26 4.79L14.86 4.58L15.14 4.49L16 1.25L16.01 1.2L16.02 1.15L16.04 1.1L16.05 1.05L16.07 1L16.08 0.95L16.1 0.9L16.11 0.86L16.13 0.81L16.15 0.76L16.16 0.72L16.18 0.68L16.2 0.63L16.22 0.59L16.24 0.55L16.26 0.51L16.28 0.47L16.31 0.44L16.33 0.4L16.35 0.37L16.38 0.33L16.4 0.3L16.43 0.27L16.46 0.24L16.48 0.21L16.51 0.19L16.54 0.16L16.57 0.14L16.6 0.12L16.63 0.1L16.67 0.08L16.7 0.06L16.73 0.05L16.77 0.04L16.81 0.03L16.84 0.02L16.88 0.01L16.92 0L16.96 0L17 0L23 0L23.04 0L23.08 0ZM19.28 11.28L18.93 11.31L18.58 11.36L18.24 11.43L17.9 11.5L17.56 11.59L17.23 11.7L16.91 11.81L16.59 11.94L16.28 12.08L15.98 12.23L15.68 12.39L15.39 12.56L15.11 12.74L14.83 12.94L14.56 13.14L14.31 13.36L14.05 13.58L13.81 13.81L13.58 14.05L13.36 14.31L13.14 14.56L12.94 14.83L12.74 15.11L12.56 15.39L12.39 15.68L12.23 15.98L12.08 16.28L11.94 16.59L11.81 16.91L11.7 17.23L11.59 17.56L11.5 17.9L11.43 18.24L11.36 18.58L11.31 18.93L11.28 19.28L11.26 19.64L11.25 20L11.26 20.36L11.28 20.72L11.31 21.07L11.36 21.42L11.43 21.76L11.5 22.1L11.59 22.44L11.7 22.77L11.81 23.09L11.94 23.41L12.08 23.72L12.23 24.02L12.39 24.32L12.56 24.61L12.74 24.89L12.94 25.17L13.14 25.44L13.36 25.69L13.58 25.95L13.81 26.19L14.05 26.42L14.31 26.64L14.56 26.86L14.83 27.06L15.11 27.26L15.39 27.44L15.68 27.61L15.98 27.77L16.28 27.92L16.59 28.06L16.91 28.19L17.23 28.3L17.56 28.41L17.9 28.5L18.24 28.57L18.58 28.64L18.93 28.69L19.28 28.72L19.64 28.74L20 28.75L20.36 28.74L20.72 28.72L21.07 28.69L21.42 28.64L21.76 28.57L22.1 28.5L22.44 28.41L22.77 28.3L23.09 28.19L23.41 28.06L23.72 27.92L24.02 27.77L24.32 27.61L24.61 27.44L24.89 27.26L25.17 27.06L25.44 26.86L25.69 26.64L25.95 26.42L26.19 26.19L26.42 25.95L26.64 25.69L26.86 25.44L27.06 25.17L27.26 24.89L27.44 24.61L27.61 24.32L27.77 24.02L27.92 23.72L28.06 23.41L28.19 23.09L28.3 22.77L28.41 22.44L28.5 22.1L28.57 21.76L28.64 21.42L28.69 21.07L28.72 20.72L28.74 20.36L28.75 20L28.74 19.64L28.72 19.28L28.69 18.93L28.64 18.58L28.57 18.24L28.5 17.9L28.41 17.56L28.3 17.23L28.19 16.91L28.06 16.59L27.92 16.28L27.77 15.98L27.61 15.68L27.44 15.39L27.26 15.11L27.06 14.83L26.86 14.56L26.64 14.31L26.42 14.05L26.19 13.81L25.95 13.58L25.69 13.36L25.44 13.14L25.17 12.94L24.89 12.74L24.61 12.56L24.32 12.39L24.02 12.23L23.72 12.08L23.41 11.94L23.09 11.81L22.77 11.7L22.44 11.59L22.1 11.5L21.76 11.43L21.42 11.36L21.07 11.31L20.72 11.28L20.36 11.26L20 11.25L19.64 11.26L19.28 11.28Z" id="b3oVRuM1g5"></path></defs><g><g><g><use xlink:href="#d62OCzalWE" opacity="1" fill="#bfb400" fill-opacity="1"></use></g><g><use xlink:href="#b3oVRuM1g5" opacity="1" fill="#f5ea00" fill-opacity="1"></use></g></g></g></svg>